<svg width="264" height="264" viewBox="0 0 264 264" fill="none" xmlns="http://www.w3.org/2000/svg">
<path d="M158.022 71.5293L145.333 84.218C144.889 84.6625 144.712 85.3084 144.868 85.9143L144.86 85.881L144.869 85.9188C144.949 86.2285 145.111 86.507 145.331 86.7264C145.54 86.9358 145.805 87.0938 146.099 87.1786L148.339 87.819C148.843 87.9638 149.272 88.2168 149.645 88.5875C150.218 89.1633 150.528 89.914 150.53 90.7272C150.528 91.5402 150.217 92.2921 149.646 92.868C149.069 93.4404 148.317 93.7512 147.503 93.7546L147.507 93.7553C146.69 93.752 145.939 93.4407 145.364 92.8681C144.994 92.4961 144.741 92.0663 144.594 91.5624L143.955 89.323C143.871 89.0282 143.714 88.765 143.503 88.5544C143.284 88.3349 143.005 88.1725 142.691 88.0916C142.084 87.9352 141.439 88.1123 140.995 88.556L131.501 98.0502L126.417 92.9656C128.106 91.223 129.05 88.9263 129.048 86.496C129.051 84.0133 128.077 81.6619 126.319 79.9067C124.561 78.1469 122.21 77.1729 119.729 77.1767C117.299 77.1733 115.003 78.1194 113.26 79.8091L104.98 71.5286C104.286 70.8364 103.163 70.8364 102.471 71.5292L76.2241 97.7756C74.9646 99.0332 74.2634 100.721 74.2656 102.499C74.2663 104.263 74.9764 105.974 76.2249 107.225L126.776 157.776C128.033 159.034 129.721 159.734 131.5 159.733C133.263 159.732 134.973 159.024 136.224 157.776L186.781 107.219C188.026 105.971 188.734 104.26 188.734 102.498C188.736 100.72 188.036 99.0332 186.776 97.7758L160.53 71.5294C159.837 70.8366 158.714 70.8366 158.022 71.5293ZM80.1043 103.345C79.8147 103.056 79.7525 102.724 79.7523 102.503C79.7529 102.275 79.8134 101.943 80.1025 101.654L103.724 78.0324L113.789 88.097C114.031 88.3398 114.384 88.435 114.716 88.3498C114.886 88.3052 115.037 88.2169 115.157 88.0966C115.272 87.9818 115.358 87.8398 115.404 87.6783L116.044 85.4389C116.225 84.8078 116.552 84.2509 117.018 83.7853C117.741 83.0619 118.704 82.6626 119.727 82.6621C120.753 82.6632 121.716 83.063 122.439 83.7859C123.162 84.5088 123.561 85.4713 123.562 86.4948C123.561 87.5201 123.162 88.483 122.439 89.2064C121.973 89.6725 121.416 89.9994 120.786 90.1798L118.545 90.8207C118.384 90.8658 118.242 90.9527 118.128 91.0668C118.007 91.1872 117.919 91.3381 117.875 91.5085C117.789 91.8398 117.884 92.1924 118.127 92.4352L128.192 102.5L121.96 108.732C121.817 108.564 121.668 108.404 121.516 108.251C119.906 106.642 117.768 105.757 115.497 105.758C113.224 105.757 111.087 106.642 109.477 108.252C107.868 109.861 106.983 111.998 106.984 114.269C106.981 116.542 107.867 118.681 109.476 120.289C109.63 120.442 109.79 120.59 109.958 120.734L103.725 126.966L80.1043 103.345ZM155.967 130.275L132.346 153.897C132.057 154.186 131.724 154.247 131.502 154.248C131.276 154.247 130.944 154.185 130.656 153.897L107.032 130.273L117.096 120.209C117.339 119.967 117.435 119.615 117.35 119.283C117.263 118.951 117.008 118.689 116.679 118.595L114.439 117.954C113.807 117.773 113.251 117.445 112.786 116.981C112.063 116.258 111.664 115.294 111.662 114.271C111.665 113.246 112.063 112.282 112.785 111.56C113.507 110.837 114.472 110.439 115.494 110.437C116.519 110.439 117.483 110.838 118.206 111.559C118.672 112.026 118.999 112.583 119.18 113.211L119.819 115.452C119.914 115.783 120.176 116.038 120.507 116.123C120.84 116.209 121.192 116.113 121.435 115.871L131.499 105.807L137.733 112.041C137.565 112.184 137.406 112.332 137.253 112.485C135.643 114.095 134.758 116.232 134.76 118.502C134.758 120.776 135.643 122.914 137.253 124.521C138.86 126.131 140.998 127.017 143.271 127.015C145.543 127.017 147.68 126.132 149.29 124.522C149.444 124.368 149.593 124.208 149.734 124.042L155.967 130.275ZM182.898 101.654C183.186 101.943 183.247 102.274 183.248 102.498C183.247 102.725 183.186 103.057 182.898 103.345L159.277 126.966L149.212 116.902C148.969 116.659 148.617 116.563 148.285 116.65C148.115 116.693 147.964 116.782 147.844 116.902C147.73 117.017 147.643 117.159 147.598 117.32L146.956 119.562C146.776 120.192 146.449 120.748 145.983 121.214C145.26 121.936 144.296 122.335 143.274 122.337C142.249 122.336 141.285 121.937 140.562 121.215C139.839 120.49 139.441 119.527 139.439 118.504C139.44 117.48 139.838 116.516 140.56 115.792C141.023 115.329 141.58 115.002 142.213 114.819L144.455 114.178C144.617 114.133 144.759 114.047 144.873 113.932C144.994 113.812 145.082 113.66 145.127 113.491C145.212 113.159 145.117 112.806 144.874 112.563L134.808 102.498L141.041 96.2653C141.183 96.4323 141.332 96.5934 141.486 96.7469C143.092 98.3547 145.23 99.2403 147.502 99.2397C149.777 99.242 151.915 98.356 153.524 96.7471C155.133 95.1382 156.018 93.0006 156.017 90.7273C156.019 88.4552 155.133 86.3188 153.523 84.7094C153.37 84.5557 153.21 84.4076 153.042 84.2639L159.275 78.0309L182.898 101.654L182.898 101.654Z" fill="url(#paint0_linear_149_636)"/>
<path d="M32.6875 180.328L30.0625 205.5H24.3203L30.0625 171.75H38.5703L46.4688 197.508L54.4609 171.75H62.9688L67.75 205.5H58.2812L55.4922 180.984L48.9062 205.5H40.3984L32.6875 180.328ZM79.2578 192.656C80.2266 192.875 81.1953 193.047 82.1641 193.172C83.1328 193.297 84.1094 193.359 85.0938 193.359C86.125 193.359 87.0781 193.265 87.9531 193.078C88.8438 192.875 89.6094 192.547 90.25 192.094C90.9062 191.625 91.4219 191.008 91.7969 190.242C92.1719 189.476 92.3594 188.523 92.3594 187.383C92.3594 186.461 92.2344 185.617 91.9844 184.851C91.7344 184.086 91.3594 183.429 90.8594 182.883C90.375 182.336 89.7734 181.914 89.0547 181.617C88.3359 181.304 87.5 181.148 86.5469 181.148C85.6562 181.148 84.8516 181.312 84.1328 181.64C83.4297 181.969 82.8047 182.414 82.2578 182.976C81.7266 183.523 81.2656 184.164 80.875 184.898C80.5 185.633 80.1875 186.398 79.9375 187.195C79.6875 187.992 79.5078 188.797 79.3984 189.609C79.2891 190.422 79.2344 191.187 79.2344 191.906C79.2344 192.031 79.2344 192.156 79.2344 192.281C79.2344 192.406 79.2422 192.531 79.2578 192.656ZM98.7812 187.312C98.7812 188.422 98.6016 189.414 98.2422 190.289C97.8828 191.148 97.3906 191.906 96.7656 192.562C96.1562 193.219 95.4453 193.773 94.6328 194.226C93.8203 194.679 92.9531 195.054 92.0312 195.351C91.1094 195.633 90.1562 195.836 89.1719 195.961C88.2031 196.086 87.2578 196.148 86.3359 196.148C85.1641 196.148 84.0078 196.07 82.8672 195.914C81.7266 195.742 80.6016 195.476 79.4922 195.117C79.6641 196.148 79.9375 197.133 80.3125 198.07C80.6875 198.992 81.1875 199.804 81.8125 200.508C82.4375 201.195 83.2031 201.742 84.1094 202.148C85.0312 202.554 86.1172 202.758 87.3672 202.758C88.1953 202.758 88.9844 202.633 89.7344 202.383C90.4844 202.133 91.1719 201.781 91.7969 201.328C92.4219 200.875 92.9688 200.336 93.4375 199.711C93.9219 199.086 94.3125 198.39 94.6094 197.625L98.0312 198.89C97.5156 200.125 96.8047 201.195 95.8984 202.101C95.0078 202.992 93.9922 203.734 92.8516 204.328C91.7266 204.906 90.5234 205.336 89.2422 205.617C87.9766 205.898 86.7188 206.039 85.4688 206.039C83.4062 206.039 81.5 205.695 79.75 205.008C78 204.304 76.4922 203.328 75.2266 202.078C73.9609 200.828 72.9688 199.336 72.25 197.601C71.5312 195.867 71.1719 193.969 71.1719 191.906C71.1719 189.844 71.5312 187.945 72.25 186.211C72.9688 184.476 73.9609 182.984 75.2266 181.734C76.4922 180.484 78 179.515 79.75 178.828C81.5 178.125 83.4062 177.773 85.4688 177.773C86.4688 177.773 87.4922 177.844 88.5391 177.984C89.5859 178.125 90.6016 178.351 91.5859 178.664C92.5703 178.961 93.5 179.351 94.375 179.836C95.25 180.32 96.0078 180.922 96.6484 181.64C97.3047 182.344 97.8203 183.164 98.1953 184.101C98.5859 185.039 98.7812 186.109 98.7812 187.312ZM145.609 189.703C145.609 191.562 145.391 193.5 144.953 195.515C144.516 197.531 143.898 199.5 143.102 201.422C142.32 203.328 141.375 205.133 140.266 206.836C139.156 208.539 137.922 210.015 136.562 211.265L133.586 209.648C134.039 208.836 134.453 207.922 134.828 206.906C135.203 205.89 135.547 204.82 135.859 203.695C136.172 202.57 136.445 201.414 136.68 200.226C136.914 199.039 137.109 197.859 137.266 196.687C137.438 195.5 137.562 194.351 137.641 193.242C137.719 192.133 137.758 191.094 137.758 190.125C137.758 189.578 137.742 188.984 137.711 188.344C137.68 187.703 137.609 187.062 137.5 186.422C137.406 185.781 137.258 185.172 137.055 184.594C136.852 184 136.57 183.476 136.211 183.023C135.867 182.554 135.43 182.187 134.898 181.922C134.383 181.64 133.758 181.5 133.023 181.5C132.305 181.5 131.688 181.695 131.172 182.086C130.672 182.461 130.242 182.953 129.883 183.562C129.523 184.172 129.234 184.859 129.016 185.625C128.812 186.39 128.656 187.164 128.547 187.945C128.438 188.711 128.359 189.445 128.312 190.148C128.281 190.851 128.266 191.445 128.266 191.929V205.5H120.367V192.89C120.367 192.344 120.375 191.687 120.391 190.922C120.406 190.14 120.383 189.328 120.32 188.484C120.273 187.64 120.172 186.804 120.016 185.976C119.875 185.133 119.641 184.383 119.312 183.726C119 183.07 118.57 182.539 118.023 182.133C117.477 181.711 116.789 181.5 115.961 181.5C115.258 181.5 114.664 181.695 114.18 182.086C113.711 182.476 113.312 182.984 112.984 183.609C112.672 184.219 112.422 184.914 112.234 185.695C112.062 186.461 111.93 187.234 111.836 188.015C111.758 188.781 111.711 189.515 111.695 190.219C111.68 190.906 111.672 191.476 111.672 191.929V205.5H103.727V178.429H106.773L109.68 184.734C110.336 182.547 111.367 180.844 112.773 179.625C114.195 178.39 116.078 177.773 118.422 177.773C120.531 177.773 122.281 178.211 123.672 179.086C125.062 179.961 126.156 181.383 126.953 183.351C127.406 182.492 127.906 181.719 128.453 181.031C129.016 180.344 129.633 179.758 130.305 179.273C130.992 178.789 131.75 178.422 132.578 178.172C133.406 177.906 134.32 177.773 135.32 177.773C137.164 177.773 138.734 178.078 140.031 178.687C141.344 179.281 142.414 180.109 143.242 181.172C144.07 182.234 144.672 183.5 145.047 184.969C145.422 186.422 145.609 188 145.609 189.703ZM179.477 191.906C179.477 193.312 179.289 194.633 178.914 195.867C178.539 197.101 178.016 198.242 177.344 199.289C176.688 200.336 175.891 201.281 174.953 202.125C174.016 202.953 172.984 203.656 171.859 204.234C170.75 204.812 169.555 205.258 168.273 205.57C167.008 205.883 165.703 206.039 164.359 206.039C163.016 206.039 161.711 205.883 160.445 205.57C159.18 205.258 157.984 204.812 156.859 204.234C155.75 203.656 154.727 202.953 153.789 202.125C152.852 201.281 152.047 200.336 151.375 199.289C150.719 198.242 150.203 197.101 149.828 195.867C149.453 194.617 149.266 193.297 149.266 191.906C149.266 190.515 149.453 189.203 149.828 187.969C150.203 186.719 150.719 185.57 151.375 184.523C152.047 183.476 152.852 182.539 153.789 181.711C154.727 180.867 155.75 180.156 156.859 179.578C157.984 179 159.18 178.554 160.445 178.242C161.711 177.929 163.016 177.773 164.359 177.773C165.703 177.773 167.008 177.929 168.273 178.242C169.555 178.554 170.75 179 171.859 179.578C172.984 180.156 174.016 180.867 174.953 181.711C175.891 182.539 176.688 183.476 177.344 184.523C178.016 185.57 178.539 186.719 178.914 187.969C179.289 189.203 179.477 190.515 179.477 191.906ZM171.414 191.906C171.414 191.156 171.367 190.367 171.273 189.539C171.195 188.695 171.055 187.875 170.852 187.078C170.648 186.265 170.367 185.492 170.008 184.758C169.664 184.008 169.234 183.359 168.719 182.812C168.203 182.25 167.586 181.804 166.867 181.476C166.148 181.133 165.312 180.961 164.359 180.961C163.453 180.961 162.648 181.133 161.945 181.476C161.242 181.82 160.625 182.281 160.094 182.859C159.578 183.422 159.141 184.078 158.781 184.828C158.438 185.578 158.156 186.359 157.938 187.172C157.719 187.969 157.562 188.781 157.469 189.609C157.375 190.422 157.328 191.187 157.328 191.906C157.328 192.625 157.375 193.398 157.469 194.226C157.562 195.039 157.719 195.851 157.938 196.664C158.156 197.476 158.438 198.258 158.781 199.008C159.141 199.742 159.578 200.398 160.094 200.976C160.625 201.539 161.242 201.992 161.945 202.336C162.648 202.679 163.453 202.851 164.359 202.851C165.297 202.851 166.125 202.687 166.844 202.359C167.562 202.015 168.18 201.562 168.695 201C169.227 200.437 169.664 199.789 170.008 199.054C170.352 198.32 170.625 197.547 170.828 196.734C171.047 195.922 171.195 195.101 171.273 194.273C171.367 193.445 171.414 192.656 171.414 191.906ZM207.508 180.82L203.055 188.203C202.867 187.578 202.625 186.875 202.328 186.094C202.031 185.312 201.664 184.586 201.227 183.914C200.789 183.226 200.266 182.656 199.656 182.203C199.047 181.734 198.344 181.5 197.547 181.5C196.812 181.5 196.172 181.687 195.625 182.062C195.094 182.437 194.641 182.929 194.266 183.539C193.891 184.133 193.578 184.812 193.328 185.578C193.094 186.328 192.906 187.094 192.766 187.875C192.641 188.64 192.555 189.383 192.508 190.101C192.461 190.804 192.438 191.414 192.438 191.929V205.5H184.492V178.429H187.539L190.75 184.734C191.188 183.719 191.688 182.789 192.25 181.945C192.812 181.086 193.461 180.351 194.195 179.742C194.93 179.117 195.758 178.633 196.68 178.289C197.617 177.945 198.672 177.773 199.844 177.773C200.453 177.773 201.133 177.828 201.883 177.937C202.633 178.031 203.367 178.203 204.086 178.453C204.805 178.687 205.469 179 206.078 179.39C206.688 179.781 207.164 180.258 207.508 180.82ZM237.531 205.5H229.609V202.265C228.672 203.547 227.539 204.5 226.211 205.125C224.898 205.734 223.453 206.039 221.875 206.039C219.812 206.039 217.969 205.672 216.344 204.937C214.719 204.203 213.344 203.203 212.219 201.937C211.094 200.656 210.234 199.156 209.641 197.437C209.047 195.719 208.75 193.875 208.75 191.906C208.75 189.937 209.047 188.094 209.641 186.375C210.234 184.656 211.094 183.164 212.219 181.898C213.344 180.617 214.719 179.609 216.344 178.875C217.969 178.14 219.812 177.773 221.875 177.773C222.922 177.773 223.914 177.929 224.852 178.242C225.805 178.554 226.672 179 227.453 179.578C228.25 180.14 228.945 180.828 229.539 181.64C230.148 182.437 230.625 183.328 230.969 184.312L234.484 178.429H237.531V205.5ZM229.562 191.906C229.562 191.203 229.523 190.461 229.445 189.679C229.383 188.898 229.266 188.125 229.094 187.359C228.922 186.594 228.68 185.867 228.367 185.179C228.07 184.476 227.68 183.859 227.195 183.328C226.727 182.781 226.156 182.351 225.484 182.039C224.812 181.726 224.031 181.57 223.141 181.57C222.25 181.57 221.477 181.734 220.82 182.062C220.164 182.375 219.602 182.804 219.133 183.351C218.664 183.883 218.273 184.5 217.961 185.203C217.664 185.906 217.43 186.64 217.258 187.406C217.086 188.172 216.961 188.945 216.883 189.726C216.82 190.492 216.789 191.219 216.789 191.906C216.789 192.594 216.82 193.328 216.883 194.109C216.961 194.89 217.086 195.664 217.258 196.429C217.43 197.195 217.664 197.929 217.961 198.633C218.273 199.336 218.664 199.961 219.133 200.508C219.602 201.039 220.164 201.469 220.82 201.797C221.477 202.109 222.25 202.265 223.141 202.265C223.953 202.265 224.672 202.101 225.297 201.773C225.938 201.429 226.492 200.976 226.961 200.414C227.445 199.851 227.852 199.211 228.18 198.492C228.508 197.773 228.773 197.031 228.977 196.265C229.18 195.5 229.328 194.742 229.422 193.992C229.516 193.226 229.562 192.531 229.562 191.906Z" fill="url(#paint1_linear_149_636)"/>
<defs>
<linearGradient id="paint0_linear_149_636" x1="161.5" y1="72.4996" x2="101.5" y2="132.5" gradientUnits="userSpaceOnUse">
<stop stop-color="#AC6CFF"/>
<stop offset="0.5" stop-color="#EC4F9D"/>
<stop offset="1" stop-color="#57AFE5"/>
</linearGradient>
<linearGradient id="paint1_linear_149_636" x1="241" y1="191.5" x2="22" y2="191.5" gradientUnits="userSpaceOnUse">
<stop stop-color="#AC6CFF"/>
<stop offset="0.5" stop-color="#EC4F9D"/>
<stop offset="1" stop-color="#57AFE5"/>
</linearGradient>
</defs>
</svg>
